<svg width="1673" height="238">
    <path id="l" d="M0 0 C0.804375 0.928125 1.60875 1.85625 2.4375 2.8125 C4.78480039 4.88412435 7.16265496 6.91635703 9.546875 8.9453125 C11.4375 10.8125 11.4375 10.8125 12.4375 13.8125 C9.16578524 19.51161604 5.37813384 22.96676591 -0.5625 25.8125 C-1.2225 25.8125 -1.8825 25.8125 -2.5625 25.8125 C-2.8925 27.1325 -3.2225 28.4525 -3.5625 29.8125 C-6.75 30.125 -6.75 30.125 -10.5625 29.8125 C-13.25 27.5625 -13.25 27.5625 -15.5625 24.8125 C-16.284375 24.11125 -17.00625 23.41 -17.75 22.6875 C-19.5625 20.8125 -19.5625 20.8125 -21.5625 17.8125 C-23.73860667 16.59053891 -23.73860667 16.59053891 -26.1875 15.625 C-27.00476563 15.28082031 -27.82203125 14.93664062 -28.6640625 14.58203125 C-29.29054688 14.32808594 -29.91703125 14.07414062 -30.5625 13.8125 C-30.830625 14.555 -31.09875 15.2975 -31.375 16.0625 C-32.5625 18.8125 -32.5625 18.8125 -34.0625 20.6875 C-36.09505994 23.56695992 -36.66922064 26.40687243 -37.5625 29.8125 C-38.01625 31.02292969 -38.47 32.23335937 -38.9375 33.48046875 C-41.37910565 40.7467642 -42.34098455 48.39209725 -43.5625 55.9375 C-48.84127238 88.09127238 -48.84127238 88.09127238 -50.5625 89.8125 C-51.03900641 91.92274269 -51.51225171 94.03377633 -51.96875 96.1484375 C-56.29080189 115.54080189 -56.29080189 115.54080189 -61.5625 120.8125 C-61.5625 122.1325 -61.5625 123.4525 -61.5625 124.8125 C-63.0625 126.5625 -63.0625 126.5625 -64.5625 127.8125 C-63.51449219 127.86148438 -62.46648438 127.91046875 -61.38671875 127.9609375 C-60.00778646 128.03598143 -58.6288815 128.11152857 -57.25 128.1875 C-56.55970703 128.2184375 -55.86941406 128.249375 -55.15820312 128.28125 C-51.49259211 128.49374919 -49.68349208 128.73183861 -46.5625 130.8125 C-43.57522421 131.16575146 -43.57522421 131.16575146 -40.171875 131.19140625 C-38.90472656 131.22556641 -37.63757813 131.25972656 -36.33203125 131.29492188 C-34.9921996 131.32221535 -33.65235549 131.34890313 -32.3125 131.375 C-29.70304166 131.43529722 -27.09365921 131.49899313 -24.484375 131.56640625 C-22.74559082 131.60229858 -22.74559082 131.60229858 -20.97167969 131.63891602 C-17.5625 131.8125 -17.5625 131.8125 -13.81738281 132.39038086 C-10.55878276 133.05326791 -10.55878276 133.05326791 -7.5625 131.8125 C-5.50104893 131.743509 -3.43748599 131.72782273 -1.375 131.75 C-0.28832031 131.75902344 0.79835938 131.76804688 1.91796875 131.77734375 C2.74941406 131.78894531 3.58085938 131.80054688 4.4375 131.8125 C4.67597656 131.07 4.91445312 130.3275 5.16015625 129.5625 C8.6625679 122.02213974 17.64040637 117.88239138 24.89453125 114.625 C27.66432981 113.74002596 29.55203939 113.44375104 32.4375 113.8125 C34.67578125 115.125 34.67578125 115.125 36.75 116.8125 C37.44738281 117.369375 38.14476562 117.92625 38.86328125 118.5 C39.38277344 118.933125 39.90226563 119.36625 40.4375 119.8125 C39.17819558 124.32500751 37.71952967 127.43930284 34.4375 130.8125 C33.426875 131.3075 32.41625 131.8025 31.375 132.3125 C28.27891104 133.54708681 28.27891104 133.54708681 27.0625 136.3125 C24.65457257 140.01700373 21.51415137 140.52896026 17.4375 141.8125 C16.633125 142.18375 15.82875 142.555 15 142.9375 C11.84405617 144.01513936 8.83947314 144.24239944 5.5234375 144.46875 C3.13774095 144.71476499 3.13774095 144.71476499 0.4375 146.8125 C-1.84567072 147.08457317 -4.14100824 147.26090369 -6.4375 147.375 C-11.18483108 147.59103238 -11.18483108 147.59103238 -15.87182617 148.29223633 C-21.50585087 149.38162083 -27.28107768 149.55828664 -33 149.9375 C-33.69068573 149.98363434 -34.38137146 150.02976868 -35.09298706 150.07730103 C-47.32810398 150.87065378 -59.33777148 150.74792173 -71.5625 149.8125 C-73.04807061 149.71195592 -74.53374448 149.61292254 -76.01953125 149.515625 C-79.20240438 149.29983699 -82.38258152 149.06754466 -85.5625 148.8125 C-85.5625 149.4725 -85.5625 150.1325 -85.5625 150.8125 C-87.2125 150.8125 -88.8625 150.8125 -90.5625 150.8125 C-91.5525 148.3375 -91.5525 148.3375 -92.5625 145.8125 C-98.22388945 145.09195952 -103.88894329 144.42976196 -109.5625 143.8125 C-109.5625 143.1525 -109.5625 142.4925 -109.5625 141.8125 C-110.34625 141.750625 -111.13 141.68875 -111.9375 141.625 C-114.5625 140.8125 -114.5625 140.8125 -115.875 138.5 C-116.5625 135.8125 -116.5625 135.8125 -116.5625 131.8125 C-115.94375 131.750625 -115.325 131.68875 -114.6875 131.625 C-113.635625 131.2228125 -113.635625 131.2228125 -112.5625 130.8125 C-112.315 130.049375 -112.0675 129.28625 -111.8125 128.5 C-109.89337435 124.37387984 -106.64426279 123.45116389 -102.5625 121.8125 C-101.428125 121.338125 -100.29375 120.86375 -99.125 120.375 C-94.28727105 119.61114806 -91.00515351 120.99583354 -86.5625 122.8125 C-83.81171116 123.72942961 -82.20301087 123.92136083 -79.375 123.875 C-77.4878125 123.8440625 -77.4878125 123.8440625 -75.5625 123.8125 C-74.88010646 121.81781118 -74.21879516 119.81592734 -73.5625 117.8125 C-73.18351562 116.70455078 -73.18351562 116.70455078 -72.796875 115.57421875 C-70.76522127 109.32987125 -69.92350764 103.36043176 -69.5625 96.8125 C-68.9025 96.8125 -68.2425 96.8125 -67.5625 96.8125 C-65.26662729 84.99121201 -65.26662729 84.99121201 -64.625 73 C-64.56278815 69.82719565 -64.09438356 68.49329622 -62.5625 65.8125 C-62.5625 64.8225 -62.5625 63.8325 -62.5625 62.8125 C-61.9025 62.8125 -61.2425 62.8125 -60.5625 62.8125 C-60.59730469 61.50539063 -60.63210937 60.19828125 -60.66796875 58.8515625 C-60.94565727 43.72821836 -60.10506356 29.06480631 -54.5625 14.8125 C-53.9025 14.8125 -53.2425 14.8125 -52.5625 14.8125 C-52.33820313 14.07128906 -52.11390625 13.33007812 -51.8828125 12.56640625 C-48.87752478 6.29798068 -41.1125991 2.41610232 -35 -0.5 C-31.37709414 -1.92127378 -31.37709414 -1.92127378 -29.5625 -5.1875 C-20.81249128 -7.87981038 -7.03273488 -6.00355416 0 0 Z " fill="#FEFEFE" transform="translate(119.5625,21.1875)"/>
    <path id="e" d="M0 0 C0.495 0.99 0.495 0.99 1 2 C3.74716664 2.35872093 6.4709277 2.44405709 9.23828125 2.55859375 C12.34610653 3.0553183 13.74009599 3.84423903 16 6 C16.91239394 8.73718181 17.15759654 10.38712457 16.4375 13.1875 C16.293125 13.785625 16.14875 14.38375 16 15 C16.99 15.99 16.99 15.99 18 17 C18.1953125 19.6015625 18.1953125 19.6015625 18.125 22.625 C18.10695313 23.62789062 18.08890625 24.63078125 18.0703125 25.6640625 C18.04710937 26.43492188 18.02390625 27.20578125 18 28 C17.34 28 16.68 28 16 28 C15.67 29.32 15.34 30.64 15 32 C16.485 32.495 16.485 32.495 18 33 C17.80078125 35.30078125 17.80078125 35.30078125 17 38 C14.85546875 39.73046875 14.85546875 39.73046875 12.1875 41.1875 C10.87845703 41.92033203 10.87845703 41.92033203 9.54296875 42.66796875 C7.94895798 43.50292677 6.33197397 44.29677508 4.6875 45.02734375 C4.130625 45.34832031 3.57375 45.66929688 3 46 C2.938125 46.78375 2.87625 47.5675 2.8125 48.375 C2 51 2 51 0.26171875 52.25 C-5.4322827 55.08224942 -9.8361996 55.34059016 -16 54 C-16 54.99 -16 55.98 -16 57 C-16.60328125 57.02578125 -17.2065625 57.0515625 -17.828125 57.078125 C-18.62734375 57.13484375 -19.4265625 57.1915625 -20.25 57.25 C-21.03890625 57.29640625 -21.8278125 57.3428125 -22.640625 57.390625 C-25.85075508 58.21973144 -27.10000576 59.28958168 -29 62 C-28.97184662 65.10383439 -28.97184662 65.10383439 -28.125 68.375 C-26.7890625 74.3796875 -26.7890625 74.3796875 -28.0546875 78.1015625 C-29.30324834 80.99007974 -29.30324834 80.99007974 -28.125 83.875 C-27.568125 84.926875 -27.568125 84.926875 -27 86 C-24.87465341 85.85930804 -22.74972471 85.71229079 -20.625 85.5625 C-18.84996094 85.44068359 -18.84996094 85.44068359 -17.0390625 85.31640625 C-14.08481099 85.18915064 -14.08481099 85.18915064 -12 84 C-10.48192714 83.84503604 -8.96017614 83.725082 -7.4375 83.625 C3.98097864 82.53052494 16.31345831 77.67835353 24 69 C27 68 27 68 29.04296875 68.77734375 C29.75066406 69.16019531 30.45835937 69.54304688 31.1875 69.9375 C31.90292969 70.31777344 32.61835938 70.69804687 33.35546875 71.08984375 C33.89816406 71.39019531 34.44085938 71.69054687 35 72 C33.83399692 80.30124583 33.83399692 80.30124583 30.6875 82.9375 C29.800625 83.288125 28.91375 83.63875 28 84 C27.175 84.37125 26.35 84.7425 25.5 85.125 C23.01004334 85.99648483 20.59738457 86.55473407 18 87 C18 87.66 18 88.32 18 89 C17.360625 89.12375 16.72125 89.2475 16.0625 89.375 C15.381875 89.58125 14.70125 89.7875 14 90 C13.67 90.66 13.34 91.32 13 92 C10.84765625 92.7109375 10.84765625 92.7109375 8.0625 93.375 C2.48196328 94.80274771 -2.68968648 96.79518785 -8 99 C-12.58556805 100.79826198 -16.09714342 101 -21 101 C-21.66 101.66 -22.32 102.32 -23 103 C-26.42668285 103.93621218 -29.85543069 104.73292157 -33.32226562 105.5 C-35.22891548 105.9433264 -37.11670777 106.4660877 -39 107 C-39.495 107.99 -39.495 107.99 -40 109 C-42.75 109.875 -42.75 109.875 -46 110 C-48.625 108.609375 -48.625 108.609375 -51 106 C-51.88794798 102.82236051 -52.06616115 99.65991007 -52.25 96.375 C-52.31445312 95.52292969 -52.37890625 94.67085938 -52.4453125 93.79296875 C-52.57558981 92.07070267 -52.69602571 90.34766405 -52.80664062 88.62402344 C-53.06570006 85.10840378 -53.47805821 81.61451667 -53.90527344 78.11572266 C-54 76 -54 76 -53 73 C-52.01 73 -51.02 73 -50 73 C-50.391875 71.906875 -50.78375 70.81375 -51.1875 69.6875 C-53.25255887 61.32401158 -48.89275084 53.22431163 -45.18359375 45.8984375 C-44 44 -44 44 -42 43 C-40.50620884 38.58954315 -40.50620884 38.58954315 -40 34 C-39.8422773 32.12422647 -39.67435357 30.24930083 -39.5 28.375 C-39.4071875 27.37210938 -39.314375 26.36921875 -39.21875 25.3359375 C-39.1465625 24.56507812 -39.074375 23.79421875 -39 23 C-37.68 23 -36.36 23 -35 23 C-34.72929687 22.41347656 -34.45859375 21.82695313 -34.1796875 21.22265625 C-31.64875272 16.45410695 -27.64895991 11.78937595 -23 9 C-22.319375 8.835 -21.63875 8.67 -20.9375 8.5 C-18.93627181 8.15851525 -18.93627181 8.15851525 -17.6875 6.6875 C-12.74740795 1.74740795 -6.86010434 -0.15244676 0 0 Z M-15.375 20.625 C-15.91125 21.40875 -16.4475 22.1925 -17 23 C-17.86625 23.9075 -18.7325 24.815 -19.625 25.75 C-21.67182108 28.18996049 -22.45825285 30.20656952 -23.125 33.3125 C-23.41375 34.529375 -23.7025 35.74625 -24 37 C-24.99 37.33 -25.98 37.66 -27 38 C-26.45291273 40.53744315 -26.45291273 40.53744315 -25 43 C-20.41125846 44.83549661 -16.09364362 43.77823175 -11.546875 42.26953125 C-6.85751463 39.93204334 -3.66219361 36.475677 -1 32 C0.06775191 27.56289763 -1.0988623 23.3920997 -2 19 C-9.03773307 18.29248739 -9.03773307 18.29248739 -15.375 20.625 Z " fill="#FEFEFE" transform="translate(219,66)"/>
    <path id="o" d="M0 0 C0.72159424 1.64363134 1.39351421 3.31050386 2 5 C2.556875 4.525625 3.11375 4.05125 3.6875 3.5625 C6.27308567 1.81548266 7.88554495 1.15572275 11 1 C13.1328125 1.984375 13.1328125 1.984375 15 4 C15.35647958 6.85787865 15.47492843 9.2796374 15.375 12.125 C15.35703369 12.89255615 15.33906738 13.6601123 15.32055664 14.45092773 C14.98515921 24.82405551 13.59214659 30.54104896 6 38 C4.49085448 39.50914552 4.85102557 40.95900323 4.75 43.0625 C4.11319631 49.42042894 0.98003049 53.65996397 -3.0625 58.4375 C-4.89904449 60.86647819 -5.73332424 62.7548139 -6.8125 65.5625 C-8.22769779 68.97132959 -9.22950019 70.5075148 -12.5625 72.125 C-16.89756222 74.48957939 -17.17019425 76.54482078 -19 81 C-20.95309888 82.40113616 -22.95708818 83.73339467 -25 85 C-26.15676717 86.44595896 -27.31268678 87.89269024 -28.453125 89.3515625 C-32.38708921 93.54381729 -37.62454202 96.59151032 -42.54296875 99.5078125 C-44.91739194 100.94983104 -47.10484328 102.50369402 -49.3125 104.1875 C-50.00988281 104.71730469 -50.70726562 105.24710937 -51.42578125 105.79296875 C-51.94527344 106.19128906 -52.46476562 106.58960938 -53 107 C-54.10865985 106.08877273 -55.21172219 105.17073341 -56.3125 104.25 C-56.92738281 103.73953125 -57.54226563 103.2290625 -58.17578125 102.703125 C-60.14684758 100.86290033 -61.6573805 99.34958413 -63 97 C-62.93359375 94.23046875 -62.93359375 94.23046875 -62.4375 91.1875 C-61.73520116 85.17406622 -62.68485115 82.92249375 -66 78 C-66.31908689 75.31967013 -66.10508179 73.43601099 -65.4765625 70.828125 C-64.88552941 67.32068273 -64.98006978 63.91445281 -65.0625 60.375 C-65.15838286 50.36665556 -64.13721889 41.74117552 -59 33 C-58.44699219 32.04996094 -57.89398438 31.09992188 -57.32421875 30.12109375 C-56.11070883 28.04487443 -54.88937112 25.97321004 -53.66015625 23.90625 C-52.26847081 21.46998185 -51.07813219 19.05807051 -49.9375 16.5 C-48.0735171 12.67725542 -45.75561482 11.06190618 -42 9 C-40.948125 8.319375 -39.89625 7.63875 -38.8125 6.9375 C-34.16809766 4.33011623 -29.13647145 3.26040065 -24 2 C-23.00226563 1.71898438 -22.00453125 1.43796875 -20.9765625 1.1484375 C-5.96268657 -2.98134328 -5.96268657 -2.98134328 0 0 Z M-39.89453125 28.890625 C-43.31865884 33.12288002 -45.73925804 37.48270009 -46 43 C-45.61486536 45.30675381 -45.05912389 47.51249378 -44.44921875 49.76953125 C-43.72632004 53.3588805 -44.40956937 56.39837313 -45 60 C-45.42277552 65.17900017 -44.03877238 68.27004807 -42 73 C-41.49205839 75.67609978 -41.23852953 78.28076337 -41 81 C-38.05908413 80.81584568 -38.05908413 80.81584568 -35 80 C-33.83333333 78.08333333 -33.83333333 78.08333333 -33 76 C-32.34 75.690625 -31.68 75.38125 -31 75.0625 C-28.25013332 73.60163333 -27.91166696 71.88694538 -27 69 C-26.34 69 -25.68 69 -25 69 C-24.443125 67.824375 -23.88625 66.64875 -23.3125 65.4375 C-21.9036549 62.58483847 -20.40360617 60.12135905 -18.4375 57.625 C-14.88294798 52.86365563 -13 46.92894938 -13 41 C-12.34 41 -11.68 41 -11 41 C-10.34726674 37.97545382 -9.8506153 35.09973249 -10 32 C-12.26092815 29.37107214 -12.26092815 29.37107214 -15 28 C-13.68 27.34 -12.36 26.68 -11 26 C-11 23.69 -11 21.38 -11 19 C-22.06554454 18.59761656 -31.78399157 20.79680808 -39.89453125 28.890625 Z " fill="#FEFEFE" transform="translate(327,66)"/>
    <path id="n" d="M0 0 C3.96 0 7.92 0 12 0 C12.43993879 6.37911241 11.69837272 8.66999225 8 14 C7.50130089 15.90831006 7.50130089 15.90831006 7.1875 18 C6.13300378 23.70782359 3.36569904 28.50731663 0.65625 33.5703125 C-2.49955424 40.10520902 -3.56580194 46.83114565 -4.625 53.9375 C-4.7590625 54.81212891 -4.893125 55.68675781 -5.03125 56.58789062 C-5.35818576 58.72464934 -5.67965679 60.86224299 -6 63 C-3.20982208 60.28435104 -0.5981872 57.68229506 1.5625 54.4375 C3.48823699 51.647881 5.60047465 49.39952535 8 47 C8.80170674 45.81925504 9.59255779 44.63109815 10.375 43.4375 C12.75304324 39.98052974 15.21360307 38.81088549 19 37 C20.04892238 35.36368108 21.04906703 33.69514137 22 32 C26.43243243 28 26.43243243 28 29 28 C29 27.34 29 26.68 29 26 C30.90625 24.51953125 30.90625 24.51953125 33.5 22.8125 C36.94436803 20.47733523 40.15560917 18.095053 43.25 15.3125 C49.59988247 9.65556105 56.71354235 5.23895931 65 3 C67.3671875 3.8671875 67.3671875 3.8671875 69 5 C69.05536025 6.64542964 69.09338848 8.29144284 69.125 9.9375 C69.14820313 10.85402344 69.17140625 11.77054688 69.1953125 12.71484375 C68.94332944 16.95319878 67.98736021 20.88068622 67 25 C66.27587867 28.22578034 65.57461217 31.45632825 64.875 34.6875 C64.69324219 35.50283203 64.51148438 36.31816406 64.32421875 37.15820312 C63.38123169 41.54344744 62.90305137 45.49188864 63 50 C62.505 50.99 62.505 50.99 62 52 C62.66 52 63.32 52 64 52 C63.65195312 52.77601562 63.30390625 53.55203125 62.9453125 54.3515625 C61.67803415 59.24262854 62.25857866 63.40820278 62.875 68.375 C63.03162109 69.76525391 63.03162109 69.76525391 63.19140625 71.18359375 C63.44925485 73.45734957 63.71907127 75.72900015 64 78 C67.05985996 76.00498814 69.87894119 74.11220085 72.5625 71.625 C77.26707314 67.64229258 83.15297666 64.83192958 89 63 C92.91015625 63.3359375 92.91015625 63.3359375 96 64 C95.44961383 68.42737107 93.82275516 71.20000356 91.25 74.8125 C90.57453125 75.78832031 89.8990625 76.76414062 89.203125 77.76953125 C87 80 87 80 84.234375 80.32421875 C83.12835938 80.16373047 83.12835938 80.16373047 82 80 C81.505 81.485 81.505 81.485 81 83 C80.071875 83.28875 79.14375 83.5775 78.1875 83.875 C74.35881423 85.22630086 73.45421455 86.85553761 71 90 C69.00233507 91.00465656 67.00188057 92.00377002 65 93 C62.5628919 94.58233735 60.22020409 96.28522712 57.875 98 C57.26785156 98.43828125 56.66070312 98.8765625 56.03515625 99.328125 C53.00111194 101.52268428 49.98676809 103.7413495 47 106 C46.67 104.68 46.34 103.36 46 102 C44.68 102 43.36 102 42 102 C41.505 98.535 41.505 98.535 41 95 C40.34 95 39.68 95 39 95 C36.99857041 79.23874196 36.99857041 79.23874196 40 72 C40.20295597 70.37913244 40.36535618 68.75296616 40.5 67.125 C41.37928222 56.62071778 41.37928222 56.62071778 44 54 C44.26309771 51.71397321 44.46071865 49.4202452 44.625 47.125 C44.72039062 45.86945313 44.81578125 44.61390625 44.9140625 43.3203125 C45.18869107 39.99829348 45.18869107 39.99829348 44 37 C44.9375 34.3125 44.9375 34.3125 46 32 C43.55146689 31.10565829 42.45555607 30.7935054 40.03515625 31.890625 C39.38417969 32.33921875 38.73320312 32.7878125 38.0625 33.25 C37.41410156 33.68828125 36.76570313 34.1265625 36.09765625 34.578125 C35.40542969 35.04734375 34.71320313 35.5165625 34 36 C33.21882813 36.40734375 32.43765625 36.8146875 31.6328125 37.234375 C28.03596738 39.64650259 25.5614216 42.68362486 22.8125 46 C22.27947266 46.6290625 21.74644531 47.258125 21.19726562 47.90625 C18.97403071 50.54616667 16.91833933 53.12249101 15 56 C14.34 56 13.68 56 13 56 C12.7215625 57.2065625 12.7215625 57.2065625 12.4375 58.4375 C11.13929836 61.65478233 10.01276343 63.42316565 7.875 66.0625 C2.28100618 72.98784099 -2.7739935 80.54707133 -6 88.875 C-7.78241358 93.2116759 -10.4882013 95.6218893 -14.1328125 98.4921875 C-16.15487394 100.00496137 -16.15487394 100.00496137 -17.875 102.4375 C-21.46790299 105.07934043 -25.69441215 104.29580375 -30 104 C-29.28809936 101.01199241 -28.42250192 98.10557739 -27.4765625 95.18359375 C-27.1775 94.25353516 -26.8784375 93.32347656 -26.5703125 92.36523438 C-25.94883695 90.44045782 -25.3264672 88.51596972 -24.703125 86.59179688 C-21.41813248 76.36480095 -18.70176275 67.06024708 -18.40625 56.26171875 C-17.95243698 52.6181238 -16.68518593 50.23289616 -15 47 C-14.60742471 44.83017284 -14.60742471 44.83017284 -14.75 42.75 C-14.77578125 41.99332031 -14.8015625 41.23664063 -14.828125 40.45703125 C-15.1194134 36.29293122 -15.51530203 32.14589871 -16 28 C-18.74210981 26.97172423 -18.74210981 26.97172423 -22 27 C-24.42395414 29.55488945 -24.42395414 29.55488945 -25.78125 31.49609375 C-27.54540038 33.67301008 -29.32522787 34.31416099 -32 35 C-33.32 35 -34.64 35 -36 35 C-36.33 32.69 -36.66 30.38 -37 28 C-35.35 27.67 -33.7 27.34 -32 27 C-31.67 26.01 -31.34 25.02 -31 24 C-30.34 24 -29.68 24 -29 24 C-29 23.34 -29 22.68 -29 22 C-28.0925 21.7525 -27.185 21.505 -26.25 21.25 C-22.83404543 19.93617132 -21.45841552 18.62230988 -19 16 C-17.9790625 15.5359375 -17.9790625 15.5359375 -16.9375 15.0625 C-14.78348285 14.09879752 -14.78348285 14.09879752 -13.625 11.625 C-11.59054399 8.33857107 -9.3233794 6.9091754 -6 5 C-5.34 5 -4.68 5 -4 5 C-3.67 4.01 -3.34 3.02 -3 2 C-2.01 2 -1.02 2 0 2 C0 1.34 0 0.68 0 0 Z " fill="#FEFEFE" transform="translate(386,65)"/>
    <path id="w" d="M0 0 C0.99 0.495 0.99 0.495 2 1 C2 2.32 2 3.64 2 5 C3.65 5.33 5.3 5.66 7 6 C5.38405168 8.04119788 3.7143618 10.04072937 2 12 C1.34 12 0.68 12 0 12 C-0.07347656 13.12148438 -0.07347656 13.12148438 -0.1484375 14.265625 C-0.22320313 15.25046875 -0.29796875 16.2353125 -0.375 17.25 C-0.44460938 18.22453125 -0.51421875 19.1990625 -0.5859375 20.203125 C-0.99355629 22.95647459 -1.73424771 24.56438574 -3 27 C-7.63771108 45.55084433 -6.82618689 67.38218394 3 84 C3 84.66 3 85.32 3 86 C5.77400546 84.61299727 6.42972831 82.65738286 8 80 C9.31321858 78.3174387 10.64613064 76.65002828 12 75 C12.53625 74.236875 13.0725 73.47375 13.625 72.6875 C14.07875 72.130625 14.5325 71.57375 15 71 C15.66 71 16.32 71 17 71 C17.04125 69.906875 17.0825 68.81375 17.125 67.6875 C17.41375 66.470625 17.7025 65.25375 18 64 C20.6875 62.5 20.6875 62.5 24 61 C27.67794493 57.48119692 30.54284795 53.44627514 33 49 C33.53625 48.278125 34.0725 47.55625 34.625 46.8125 C38.08977058 39.72546928 37.04973814 31.59041426 36 24 C36.78375 23.5875 37.5675 23.175 38.375 22.75 C41.08846586 21.26122243 41.08846586 21.26122243 42 18.9375 C43.42083535 16.1846315 45.12924054 16.00142772 48 15 C49.2375 14.1646875 49.2375 14.1646875 50.5 13.3125 C53 12 53 12 55.625 12 C58.84925562 13.35758131 59.56835137 14.85037302 61 18 C61.12375 18.886875 61.2475 19.77375 61.375 20.6875 C61.58125 21.450625 61.7875 22.21375 62 23 C64.4964851 24.17056467 64.4964851 24.17056467 67 25 C67.12117187 26.14597656 67.24234375 27.29195312 67.3671875 28.47265625 C67.53614266 30.00263906 67.70543127 31.53258507 67.875 33.0625 C67.95363281 33.81466797 68.03226563 34.56683594 68.11328125 35.34179688 C68.64652403 40.07945392 69.58665756 44.4283808 71 49 C71.32097656 50.34578125 71.32097656 50.34578125 71.6484375 51.71875 C74.56128867 62.86901901 80.36061961 72.69676283 85.84838867 82.75439453 C87 85 87 85 88 88 C89.32 88 90.64 88 92 88 C92.20625 88.886875 92.4125 89.77375 92.625 90.6875 C94.38813801 94.93505975 96.38532617 96.23131366 100 99 C100.33 99.66 100.66 100.32 101 101 C101.99 101.33 102.98 101.66 104 102 C104.21269531 101.45601563 104.42539062 100.91203125 104.64453125 100.3515625 C106.48168134 97.16434535 109.03993491 94.87911491 111.6875 92.375 C116.32809193 87.89727233 120.11345395 83.39287597 123.5 77.86328125 C125.24664354 75.69362248 126.28302492 75.34547744 129 75 C129.103125 74.46375 129.20625 73.9275 129.3125 73.375 C130.18819532 70.34987072 131.47247161 67.7495511 133 65 C133.66 64.67 134.32 64.34 135 64 C136.02943172 61.89661291 136.02943172 61.89661291 136.9375 59.375 C138.10759579 56.30568157 139.3034384 53.29094628 140.6875 50.3125 C142.06238933 46.84254121 142.55705059 43.69124506 143 40 C143.33 39.67 143.66 39.34 144 39 C144.07244053 36.98035801 144.08377188 34.95832876 144.0625 32.9375 C144.05347656 31.83277344 144.04445313 30.72804687 144.03515625 29.58984375 C144.02355469 28.73519531 144.01195312 27.88054688 144 27 C141.36 27 138.72 27 136 27 C134.73828125 24.921875 134.73828125 24.921875 134 22 C135.29034993 19.44951911 136.49328051 17.49717638 138.1875 15.25 C138.60064453 14.66089844 139.01378906 14.07179688 139.43945312 13.46484375 C141.51222022 10.59790039 142.573632 9.14212267 146 8 C146 7.34 146 6.68 146 6 C151.54165256 2.22695996 155.34454208 1.45669731 162 2 C163.1526479 7.49794755 163.14849648 12.84925315 163.125 18.4375 C163.12886719 19.35337891 163.13273438 20.26925781 163.13671875 21.21289062 C163.12079649 32.30274783 160.93545102 41.12909795 156 51 C155.57369749 52.43467192 155.15788064 53.87248238 154.75 55.3125 C153.321649 59.80804683 151.01948017 62.86154638 147.9140625 66.37109375 C146.13580173 68.81348048 145.00351858 71.04571853 143.73828125 73.7734375 C141.12352338 79.13882973 137.75028258 82.98756571 133.5625 87.1875 C132.13760404 88.65845054 130.71313339 90.12981318 129.2890625 91.6015625 C128.57395508 92.3327832 127.85884766 93.06400391 127.12207031 93.81738281 C123.84551484 97.18742491 120.63948091 100.62175388 117.4375 104.0625 C116.85766357 104.68390869 116.27782715 105.30531738 115.68041992 105.94555664 C108.50751022 113.54601919 108.50751022 113.54601919 102.0625 121.75 C98.08984061 126.08381025 92.3905293 127.90368305 87 130 C85.65949948 130.65213539 84.32338632 131.31379969 83 132 C80.56927995 128.30941378 79.3054572 124.95003086 78.1875 120.6875 C76.42811157 114.70557934 74.05166715 110.65671612 70 106 C67.10195675 102.34294542 67.10195675 102.34294542 66.3125 99.6875 C64.872252 96.73842077 63.50082872 95.57726494 61 93.5 C57.83780046 90.85722313 56.04875451 89.09014259 55 85 C53.72257367 80.97638842 52.24191666 77.12155244 50.5625 73.25 C45 60.05140533 45 60.05140533 45 55 C41.8740203 56.71307161 41.8740203 56.71307161 40.8125 59.5 C37.67730864 65.55416263 33.09835355 70.58550378 28.640625 75.71484375 C23.03279507 82.22456989 18.27521697 88.91239679 13.75463867 96.21313477 C11.44766915 99.91211499 9.22162317 103.01358384 6 106 C4.96564444 107.64556566 3.97236487 109.3170608 3 111 C1.96758242 112.5893797 0.92514731 114.17227869 -0.125 115.75 C-0.90230469 116.91789062 -0.90230469 116.91789062 -1.6953125 118.109375 C-3 120 -3 120 -4 121 C-6.33297433 121.04092937 -8.66705225 121.04241723 -11 121 C-11.04125 121.556875 -11.0825 122.11375 -11.125 122.6875 C-12.46930374 126.24030274 -15.00974189 127.70958953 -18 130 C-20.46800047 128.84826645 -22.04783565 127.95216435 -24 126 C-23.74726526 122.65126469 -23.337716 119.78096825 -22 116.6875 C-19.32665897 109.50289597 -18.88970502 99.88453881 -21.9699707 92.75488281 C-23.09849033 89.73658096 -23.53528454 87.01242189 -23.9296875 83.81640625 C-24.08566406 82.64142578 -24.24164062 81.46644531 -24.40234375 80.25585938 C-24.71683153 77.79843626 -25.02415405 75.34008529 -25.32421875 72.88085938 C-26.19313861 66.43460433 -26.99964153 62.12888065 -31 57 C-30.83627755 53.83469929 -30.31940266 51.15753446 -29.48046875 48.1171875 C-28.92218937 45.65712715 -28.7011486 43.26435753 -28.5 40.75 C-28.21511077 37.31294931 -27.86800885 33.91313822 -27.375 30.5 C-26.75833014 27.03251898 -26.75833014 27.03251898 -28 24 C-42.17881862 25.94399016 -42.17881862 25.94399016 -54.5625 32.1875 C-58.11673669 34.83039395 -60.64709999 34.29511187 -65 34 C-67.06822519 29.62022901 -67.06822519 29.62022901 -66.78515625 27.046875 C-64.43395763 20.91738208 -56.6140145 16.80700725 -51 14 C-50.34 14 -49.68 14 -49 14 C-49 13.34 -49 12.68 -49 12 C-46.89679937 11.49595192 -44.79240209 10.99689492 -42.6875 10.5 C-41.51574219 10.2215625 -40.34398437 9.943125 -39.13671875 9.65625 C-35.98009005 8.99583453 -33.21360836 9 -30 9 C-28.34857585 8.76565767 -26.70264854 8.49086582 -25.0625 8.1875 C-23.78052734 7.96126953 -23.78052734 7.96126953 -22.47265625 7.73046875 C-19.76488856 6.9305437 -18.19816638 5.73245316 -16 4 C-14.7315625 3.7834375 -14.7315625 3.7834375 -13.4375 3.5625 C-10.30886787 2.84050797 -9.77216237 1.57769072 -8 -1 C-4.34566236 -2.21811255 -3.39369816 -1.56632223 0 0 Z " fill="#FEFEFE" transform="translate(654,33)"/>
    <path id="e" d="M0 0 C0.495 0.99 0.495 0.99 1 2 C3.45291361 2.39354302 3.45291361 2.39354302 6.3125 2.5 C12.96515382 2.85528191 12.96515382 2.85528191 16 5 C16.75 8.625 16.75 8.625 17 12 C16.34 12 15.68 12 15 12 C15.495 12.598125 15.99 13.19625 16.5 13.8125 C18.69805475 18.48336634 18.24023041 22.9195716 18 28 C17.34 28 16.68 28 16 28 C15.67 29.32 15.34 30.64 15 32 C15.99 32 16.98 32 18 32 C17.828125 34.78515625 17.828125 34.78515625 17 38 C14.671875 39.87109375 14.671875 39.87109375 11.75 41.4375 C8.0985504 43.55693857 5.51852562 45.12417934 3.3125 48.75 C0.76934855 52.32415879 -0.72904638 53.36363102 -4.796875 54.64453125 C-8.61636213 55.26079602 -12.22781526 54.72474846 -16 54 C-16 54.99 -16 55.98 -16 57 C-17.2375 57.12375 -18.475 57.2475 -19.75 57.375 C-24.15038218 57.92036055 -24.15038218 57.92036055 -28 60 C-29.08810112 63.01964157 -28.97078813 64.85342194 -28 67.875 C-26.66006715 72.70415397 -27.42893819 76.28681458 -29 81 C-28.12085312 83.6569191 -28.12085312 83.6569191 -27 86 C-25.80375 85.835 -24.6075 85.67 -23.375 85.5 C-19.89172703 85.05532685 -16.51182702 85 -13 85 C-12.34 84.67 -11.68 84.34 -11 84 C-9.64885301 83.84574643 -8.29370801 83.72545985 -6.9375 83.625 C4.28693566 82.42748855 16.45351437 77.52022571 24 69 C27 68 27 68 29.04296875 68.77734375 C29.75066406 69.16019531 30.45835937 69.54304688 31.1875 69.9375 C31.90292969 70.31777344 32.61835937 70.69804687 33.35546875 71.08984375 C33.89816406 71.39019531 34.44085937 71.69054687 35 72 C33.68727273 80.23909091 33.68727273 80.23909091 31.25 82.9375 C28.56404897 84.20586576 25.82264295 85.07832067 23 86 C21.32983484 86.99414593 19.66279327 87.9935725 18 89 C16.66666667 89.33333333 15.33333333 89.66666667 14 90 C13.67 90.66 13.34 91.32 13 92 C10.84765625 92.7109375 10.84765625 92.7109375 8.0625 93.375 C2.48196328 94.80274771 -2.68968648 96.79518785 -8 99 C-12.58556805 100.79826198 -16.09714342 101 -21 101 C-21.99 101.99 -21.99 101.99 -23 103 C-28.23790718 105.05371181 -33.33815858 106.44698748 -39 106 C-39.33 106.99 -39.66 107.98 -40 109 C-42.6875 109.75 -42.6875 109.75 -46 110 C-49.26054439 108.02582466 -50.76217696 106.89827085 -51.7512207 103.16259766 C-51.80882568 102.09058105 -51.86643066 101.01856445 -51.92578125 99.9140625 C-51.99990234 98.73585938 -52.07402344 97.55765625 -52.15039062 96.34375 C-52.20388672 95.1165625 -52.25738281 93.889375 -52.3125 92.625 C-52.38533203 91.40554687 -52.45816406 90.18609375 -52.53320312 88.9296875 C-52.83792508 83.61301489 -53.03346839 78.32596956 -53 73 C-51.515 72.505 -51.515 72.505 -50 72 C-50.33 71.67 -50.66 71.34 -51 71 C-51.35686668 60.65086624 -49.341031 52.98199908 -44 44 C-43.01 43.505 -43.01 43.505 -42 43 C-41.30741771 41.00882592 -40.64252365 39.0078864 -40 37 C-39.34 36.01 -38.68 35.02 -38 34 C-38.66 34 -39.32 34 -40 34 C-39.93999894 32.3739713 -39.8512115 30.74898451 -39.75 29.125 C-39.68039062 27.76761719 -39.68039062 27.76761719 -39.609375 26.3828125 C-39.40828125 25.59648438 -39.2071875 24.81015625 -39 24 C-37.203125 22.98828125 -37.203125 22.98828125 -35 22 C-32.93754002 19.7096387 -32.93754002 19.7096387 -31 17.0625 C-27.11324787 11.90799863 -23.94236133 9.37694453 -18 7 C-16.66209359 6.00612666 -15.32781878 5.0073108 -14 4 C-13.34 4 -12.68 4 -12 4 C-12 3.34 -12 2.68 -12 2 C-7.82262526 0.40861915 -4.46839215 -0.21278058 0 0 Z M-16 21 C-17.01866229 22.65532623 -18.01810813 24.32260138 -19 26 C-19.515625 26.474375 -20.03125 26.94875 -20.5625 27.4375 C-22.59779756 29.64977996 -23.0781873 32.17310774 -24 35 C-24.66 35.33 -25.32 35.66 -26 36 C-26 37.98 -26 39.96 -26 42 C-21.79217788 44.59466168 -19.02043066 43.77116604 -14.39453125 42.6875 C-8.37848054 40.96021627 -4.37518606 37.18026975 -1 32 C0.40462716 26.99601575 -0.02175667 23.77105745 -2 19 C-3.77049689 18.94589313 -5.54146849 18.90715881 -7.3125 18.875 C-8.29863281 18.85179688 -9.28476562 18.82859375 -10.30078125 18.8046875 C-13.22406527 18.79317361 -13.22406527 18.79317361 -16 21 Z " fill="#FEFEFE" transform="translate(876,66)"/>
    <path id="s" d="M0 0 C3.04021747 1.03812304 4.47344114 2.47645094 6.5625 4.875 C6.2678634 7.82504897 6.03495193 9.36231155 4.5625 11.875 C1.14584549 14.37897612 -2.5924119 16.0618711 -6.4375 17.8125 C-7.46101562 18.30556641 -8.48453125 18.79863281 -9.5390625 19.30664062 C-17.04202063 22.875 -17.04202063 22.875 -19.4375 22.875 C-20.65464443 27.74357773 -21.12305811 30.42132966 -18.9453125 35.0390625 C-17.67135973 37.14185202 -16.35849846 39.22166769 -15.00390625 41.2734375 C-13.4375 43.875 -13.4375 43.875 -13.4375 46.875 C-12.86 46.6275 -12.2825 46.38 -11.6875 46.125 C-9.4375 45.875 -9.4375 45.875 -7.3125 47.5 C-5.4375 49.875 -5.4375 49.875 -4.50390625 52.2109375 C-3.39926476 54.97051806 -2.05412906 57.3441028 -0.5 59.875 C0.00402344 60.7 0.50804687 61.525 1.02734375 62.375 C2.06543886 64.06553657 3.13020035 65.73993968 4.21875 67.3984375 C6.4746129 71.55604529 6.37746028 75.27629556 5.5625 79.875 C3.96273727 83.81403841 2.10816177 87.46220284 -0.4375 90.875 C-1.4275 91.205 -2.4175 91.535 -3.4375 91.875 C-4.52916275 93.80830603 -4.52916275 93.80830603 -5.4375 95.875 C-6.0975 96.535 -6.7575 97.195 -7.4375 97.875 C-8.4275 97.875 -9.4175 97.875 -10.4375 97.875 C-10.63730469 98.431875 -10.83710937 98.98875 -11.04296875 99.5625 C-12.98679504 102.78587581 -15.76250845 104.68660442 -18.75 106.875 C-19.89222981 107.72876181 -21.03416105 108.58292322 -22.17578125 109.4375 C-22.73096436 109.84709961 -23.28614746 110.25669922 -23.8581543 110.67871094 C-25.28994725 111.76323489 -26.66836019 112.91735007 -28.0390625 114.078125 C-30.53674097 115.94934991 -32.50963253 116.79305851 -35.5 117.625 C-36.33660156 117.86734375 -37.17320312 118.1096875 -38.03515625 118.359375 C-40.4375 118.875 -40.4375 118.875 -44.4375 118.875 C-44.4375 119.535 -44.4375 120.195 -44.4375 120.875 C-46.9125 121.865 -46.9125 121.865 -49.4375 122.875 C-52.5975 116.555 -52.5975 116.555 -51.9375 113.75 C-51.4425 113.13125 -50.9475 112.5125 -50.4375 111.875 C-49.798125 111.070625 -49.15875 110.26625 -48.5 109.4375 C-44.92716299 106.44798332 -41.35789942 104.89707478 -37.10546875 103.06640625 C-33.86174583 101.61789162 -31.22392037 100.07480555 -28.4375 97.875 C-27.9425 96.39 -27.9425 96.39 -27.4375 94.875 C-26.7775 94.875 -26.1175 94.875 -25.4375 94.875 C-24.9425 93.39 -24.9425 93.39 -24.4375 91.875 C-23.4784375 91.00875 -23.4784375 91.00875 -22.5 90.125 C-19.75750475 87.133187 -19.1972976 84.85682699 -18.4375 80.875 C-19.01524173 78.0688259 -19.6019182 75.96045978 -20.6875 73.375 C-21.0894458 72.38608765 -21.0894458 72.38608765 -21.49951172 71.37719727 C-23.9261527 65.97325962 -27.05388641 63.29058867 -32.16796875 60.27734375 C-37.39514099 57.04747313 -39.18623068 51.29851245 -41.4375 45.875 C-42.0975 44.885 -42.7575 43.895 -43.4375 42.875 C-45.37720308 35.89206892 -44.73381371 30.63943516 -41.3125 24.37890625 C-41.02375 23.88261719 -40.735 23.38632813 -40.4375 22.875 C-39.7775 22.875 -39.1175 22.875 -38.4375 22.875 C-38.14875 22.25625 -37.86 21.6375 -37.5625 21 C-36.4375 18.875 -36.4375 18.875 -34.4375 16.875 C-33.1175 16.875 -31.7975 16.875 -30.4375 16.875 C-30.4375 16.215 -30.4375 15.555 -30.4375 14.875 C-29.53 14.276875 -28.6225 13.67875 -27.6875 13.0625 C-24.38872245 11.12891263 -24.38872245 11.12891263 -22.70703125 8.375 C-19.80956228 5.18329579 -16.94203639 4.53855776 -12.875 3.6875 C-8.62455875 2.72982628 -3.98159516 -0.20418437 0 0 Z " fill="#FEFEFE" transform="translate(965.4375,54.125)"/>
    <path id="t" d="M0 0 C2.0625 1.4375 2.0625 1.4375 3.0625 4.4375 C2.43392727 5.78920949 1.76223306 7.12121893 1.0625 8.4375 C0.72384077 9.96952986 0.43479881 11.51309726 0.1875 13.0625 C-0.67029743 17.69188298 -2.16243283 21.73104498 -3.9921875 26.0546875 C-5.34178113 29.45655575 -6.10613575 32.87451037 -6.9375 36.4375 C-7.59108081 38.44181449 -8.25563751 40.44262958 -8.9375 42.4375 C-7.9587793 42.43226318 -6.98005859 42.42702637 -5.97167969 42.42163086 C-2.33383095 42.40350439 1.30401381 42.39204003 4.94189453 42.38256836 C6.51514355 42.37754563 8.08838792 42.37072625 9.66162109 42.36206055 C11.92546743 42.34990471 14.18925193 42.34425104 16.453125 42.33984375 C17.15431458 42.33468246 17.85550415 42.32952118 18.57794189 42.32420349 C26.86866633 42.32325524 26.86866633 42.32325524 29.9375 45.1875 C31.0625 47.4375 31.0625 47.4375 30.421875 49.9453125 C28.75346913 53.0040566 27.68517296 53.44642663 24.4375 54.5625 C23.62023438 54.85382813 22.80296875 55.14515625 21.9609375 55.4453125 C20.52621094 55.93644531 20.52621094 55.93644531 19.0625 56.4375 C17.29326172 57.2109375 17.29326172 57.2109375 15.48828125 58 C9.15881566 60.38997038 2.32999351 60.18306822 -4.35742188 60.43359375 C-10.81029738 60.64564547 -10.81029738 60.64564547 -16.16015625 63.8359375 C-18.13659333 66.72892012 -18.31715316 68.02062155 -17.9375 71.4375 C-18.2675 71.7675 -18.5975 72.0975 -18.9375 72.4375 C-19.16278924 74.43291896 -19.38511095 76.42909864 -19.55859375 78.4296875 C-19.9375 80.4375 -19.9375 80.4375 -21.9375 83.4375 C-22.30427679 86.04661673 -22.44131001 88.62822265 -22.59375 91.2578125 C-22.7071875 91.97710937 -22.820625 92.69640625 -22.9375 93.4375 C-23.9275 93.9325 -23.9275 93.9325 -24.9375 94.4375 C-24.92589844 95.20191406 -24.91429687 95.96632813 -24.90234375 96.75390625 C-24.85044546 102.91497451 -25.04601592 108.92652744 -25.625 115.0625 C-26.0789747 120.9887103 -25.5269089 125.64821804 -23.62890625 131.265625 C-22.9375 133.4375 -22.9375 133.4375 -22.9375 136.4375 C-21.7 135.509375 -21.7 135.509375 -20.4375 134.5625 C-17.83700966 132.80459278 -16.48299375 132.34505805 -13.25 131.6875 C-6.46938314 130.25793088 0.27045314 125.12557029 4.0625 119.4375 C5.2071875 118.756875 5.2071875 118.756875 6.375 118.0625 C9.21619797 116.52036968 9.21619797 116.52036968 11.4375 113.8125 C14.64737062 110.90833135 16.81365959 110.68743179 21.0625 110.4375 C20.56861711 118.10119997 19.43937197 123.5152223 13.5 128.8125 C10.37019231 131.4375 10.37019231 131.4375 8.0625 131.4375 C7.83304688 132.0459375 7.60359375 132.654375 7.3671875 133.28125 C5.68945298 136.0540328 4.13019603 136.64515872 1.1875 137.9375 C-2.62376251 139.71499868 -5.01206937 141.41119245 -7.9375 144.4375 C-10.26421865 145.45279541 -12.5978447 146.45238198 -14.9375 147.4375 C-15.64648438 148.05238281 -16.35546875 148.66726562 -17.0859375 149.30078125 C-20.83555723 152.11042782 -24.75117247 153.52277587 -29.125 155.125 C-30.74370739 155.73249286 -32.36220718 156.34053929 -33.98046875 156.94921875 C-35.04817505 157.34306763 -35.04817505 157.34306763 -36.13745117 157.74487305 C-37.99780336 158.4275769 -37.99780336 158.4275769 -39.9375 159.4375 C-42.84023698 158.10442487 -44.55965106 157.07937383 -46.1953125 154.30078125 C-50.43684043 141.82457523 -53.56410491 128.57052453 -50.9375 115.4375 C-49.9475 115.4375 -48.9575 115.4375 -47.9375 115.4375 C-47.80472656 114.75042969 -47.67195312 114.06335938 -47.53515625 113.35546875 C-47.35855469 112.45441406 -47.18195312 111.55335938 -47 110.625 C-46.82597656 109.73167969 -46.65195312 108.83835937 -46.47265625 107.91796875 C-45.9375 105.4375 -45.9375 105.4375 -44.9375 102.4375 C-43.6175 102.4375 -42.2975 102.4375 -40.9375 102.4375 C-41.2778125 101.4784375 -41.2778125 101.4784375 -41.625 100.5 C-42.00699617 96.75643754 -41.04365871 94.51162997 -39.76171875 91.03125 C-38.84688952 88.15235611 -38.37876607 85.36203183 -37.9375 82.375 C-37.38452297 78.66485495 -36.67770439 75.40662787 -35.25 71.9375 C-33.93117925 68.42064466 -33.71627751 67.74639893 -34.9375 64.4375 C-36.72478989 62.55504471 -36.72478989 62.55504471 -38.9375 61.4375 C-40.4225 61.9325 -40.4225 61.9325 -41.9375 62.4375 C-44.51825001 62.46677917 -47.0812024 62.372019 -49.66015625 62.27734375 C-52.1386927 62.20151987 -52.1386927 62.20151987 -53.9375 64.4375 C-56.1015625 64.6328125 -56.1015625 64.6328125 -58.5625 64.5625 C-59.37976563 64.54445313 -60.19703125 64.52640625 -61.0390625 64.5078125 C-61.66554688 64.48460938 -62.29203125 64.46140625 -62.9375 64.4375 C-65.43831439 59.73008468 -64.92046857 56.51617094 -63.9375 51.4375 C-61.9375 48.4375 -61.9375 48.4375 -60.07739258 47.85327148 C-58.96593872 47.70740601 -58.96593872 47.70740601 -57.83203125 47.55859375 C-56.60323242 47.38360352 -56.60323242 47.38360352 -55.34960938 47.20507812 C-54.49173828 47.09615234 -53.63386719 46.98722656 -52.75 46.875 C-44.20456692 45.7655463 -44.20456692 45.7655463 -35.9375 43.4375 C-35.2775 42.4475 -34.6175 41.4575 -33.9375 40.4375 C-32.9475 40.4375 -31.9575 40.4375 -30.9375 40.4375 C-30.81375 39.65375 -30.69 38.87 -30.5625 38.0625 C-29.9375 35.4375 -29.9375 35.4375 -27.9375 33.4375 C-26.74836297 30.00221524 -25.86336355 27.27153503 -26.1875 23.625 C-25.78815904 18.53340278 -23.0565543 14.41500961 -19.9375 10.4375 C-17.875 9.2890625 -17.875 9.2890625 -15.9375 8.4375 C-14.82375 7.261875 -14.82375 7.261875 -13.6875 6.0625 C-9.76909574 2.32220503 -5.5948577 -1.07135573 0 0 Z " fill="#FEFEFE" transform="translate(1050.9375,24.5625)"/>
    <path id="e" d="M0 0 C0.495 0.99 0.495 0.99 1 2 C3.74716664 2.35872093 6.4709277 2.44405709 9.23828125 2.55859375 C12.34610653 3.0553183 13.74009599 3.84423903 16 6 C16.91239394 8.73718181 17.15759654 10.38712457 16.4375 13.1875 C16.293125 13.785625 16.14875 14.38375 16 15 C16.99 15.99 16.99 15.99 18 17 C18.1953125 19.6015625 18.1953125 19.6015625 18.125 22.625 C18.10695313 23.62789062 18.08890625 24.63078125 18.0703125 25.6640625 C18.04710937 26.43492188 18.02390625 27.20578125 18 28 C17.34 28 16.68 28 16 28 C15.67 29.32 15.34 30.64 15 32 C16.485 32.495 16.485 32.495 18 33 C17.80078125 35.30078125 17.80078125 35.30078125 17 38 C14.85546875 39.73046875 14.85546875 39.73046875 12.1875 41.1875 C10.87845703 41.92033203 10.87845703 41.92033203 9.54296875 42.66796875 C7.94895798 43.50292677 6.33197397 44.29677508 4.6875 45.02734375 C4.130625 45.34832031 3.57375 45.66929688 3 46 C2.938125 46.78375 2.87625 47.5675 2.8125 48.375 C2 51 2 51 0.26171875 52.25 C-5.4322827 55.08224942 -9.8361996 55.34059016 -16 54 C-16 54.99 -16 55.98 -16 57 C-16.60328125 57.02578125 -17.2065625 57.0515625 -17.828125 57.078125 C-18.62734375 57.13484375 -19.4265625 57.1915625 -20.25 57.25 C-21.03890625 57.29640625 -21.8278125 57.3428125 -22.640625 57.390625 C-25.85075508 58.21973144 -27.10000576 59.28958168 -29 62 C-28.97184662 65.10383439 -28.97184662 65.10383439 -28.125 68.375 C-26.7890625 74.3796875 -26.7890625 74.3796875 -28.0546875 78.1015625 C-29.30324834 80.99007974 -29.30324834 80.99007974 -28.125 83.875 C-27.568125 84.926875 -27.568125 84.926875 -27 86 C-24.87465341 85.85930804 -22.74972471 85.71229079 -20.625 85.5625 C-18.84996094 85.44068359 -18.84996094 85.44068359 -17.0390625 85.31640625 C-14.08481099 85.18915064 -14.08481099 85.18915064 -12 84 C-10.48192714 83.84503604 -8.96017614 83.725082 -7.4375 83.625 C3.98097864 82.53052494 16.31345831 77.67835353 24 69 C27 68 27 68 29.04296875 68.77734375 C29.75066406 69.16019531 30.45835938 69.54304688 31.1875 69.9375 C31.90292969 70.31777344 32.61835937 70.69804687 33.35546875 71.08984375 C33.89816406 71.39019531 34.44085937 71.69054687 35 72 C33.83399692 80.30124583 33.83399692 80.30124583 30.6875 82.9375 C29.800625 83.288125 28.91375 83.63875 28 84 C27.175 84.37125 26.35 84.7425 25.5 85.125 C23.01004334 85.99648483 20.59738457 86.55473407 18 87 C18 87.66 18 88.32 18 89 C17.360625 89.12375 16.72125 89.2475 16.0625 89.375 C15.381875 89.58125 14.70125 89.7875 14 90 C13.67 90.66 13.34 91.32 13 92 C10.84765625 92.7109375 10.84765625 92.7109375 8.0625 93.375 C2.48196328 94.80274771 -2.68968648 96.79518785 -8 99 C-12.58556805 100.79826198 -16.09714342 101 -21 101 C-21.66 101.66 -22.32 102.32 -23 103 C-26.42668285 103.93621218 -29.85543069 104.73292157 -33.32226562 105.5 C-35.22891548 105.9433264 -37.11670777 106.4660877 -39 107 C-39.495 107.99 -39.495 107.99 -40 109 C-42.75 109.875 -42.75 109.875 -46 110 C-48.625 108.609375 -48.625 108.609375 -51 106 C-51.88794798 102.82236051 -52.06616115 99.65991007 -52.25 96.375 C-52.31445312 95.52292969 -52.37890625 94.67085938 -52.4453125 93.79296875 C-52.57558981 92.07070267 -52.69602571 90.34766405 -52.80664062 88.62402344 C-53.06570006 85.10840378 -53.47805821 81.61451667 -53.90527344 78.11572266 C-54 76 -54 76 -53 73 C-52.01 73 -51.02 73 -50 73 C-50.391875 71.906875 -50.78375 70.81375 -51.1875 69.6875 C-53.25255887 61.32401158 -48.89275084 53.22431163 -45.18359375 45.8984375 C-44 44 -44 44 -42 43 C-40.50620884 38.58954315 -40.50620884 38.58954315 -40 34 C-39.8422773 32.12422647 -39.67435357 30.24930083 -39.5 28.375 C-39.4071875 27.37210938 -39.314375 26.36921875 -39.21875 25.3359375 C-39.1465625 24.56507812 -39.074375 23.79421875 -39 23 C-37.68 23 -36.36 23 -35 23 C-34.72929688 22.41347656 -34.45859375 21.82695313 -34.1796875 21.22265625 C-31.64875272 16.45410695 -27.64895991 11.78937595 -23 9 C-22.319375 8.835 -21.63875 8.67 -20.9375 8.5 C-18.93627181 8.15851525 -18.93627181 8.15851525 -17.6875 6.6875 C-12.74740795 1.74740795 -6.86010434 -0.15244676 0 0 Z M-15.375 20.625 C-15.91125 21.40875 -16.4475 22.1925 -17 23 C-17.86625 23.9075 -18.7325 24.815 -19.625 25.75 C-21.67182108 28.18996049 -22.45825285 30.20656952 -23.125 33.3125 C-23.41375 34.529375 -23.7025 35.74625 -24 37 C-24.99 37.33 -25.98 37.66 -27 38 C-26.45291273 40.53744315 -26.45291273 40.53744315 -25 43 C-20.41125846 44.83549661 -16.09364362 43.77823175 -11.546875 42.26953125 C-6.85751463 39.93204334 -3.66219361 36.475677 -1 32 C0.06775191 27.56289763 -1.0988623 23.3920997 -2 19 C-9.03773307 18.29248739 -9.03773307 18.29248739 -15.375 20.625 Z " fill="#FEFEFE" transform="translate(1132,66)"/>
    <path id="r" d="M0 0 C0.61359375 0.34675781 1.2271875 0.69351563 1.859375 1.05078125 C1.72660156 1.66824219 1.59382813 2.28570312 1.45703125 2.921875 C0.55635293 7.24118635 -0.22251135 11.4625623 -0.578125 15.86328125 C-0.9324895 19.56442161 -1.88855404 22.01538126 -4.140625 25.05078125 C-0.43248375 22.62343087 3.1532943 20.10278622 6.70410156 17.44702148 C16.13091679 10.47069589 26.6237945 3.34575709 38.859375 4.05078125 C41.984375 4.98828125 41.984375 4.98828125 43.859375 6.05078125 C43.671875 9.36328125 43.671875 9.36328125 42.859375 13.05078125 C40.484375 14.80078125 40.484375 14.80078125 37.859375 16.05078125 C37.34375 16.56640625 36.828125 17.08203125 36.296875 17.61328125 C34.5318219 19.37833435 33.21916985 20.19863311 30.859375 21.05078125 C29.869375 21.00953125 28.879375 20.96828125 27.859375 20.92578125 C23.07837186 20.73829093 18.87026073 22.57256909 14.43359375 24.17578125 C11.859375 25.05078125 11.859375 25.05078125 9.859375 25.05078125 C9.59511719 25.78941406 9.33085938 26.52804688 9.05859375 27.2890625 C7.8648041 30.03827841 6.56396751 31.93053455 4.671875 34.23828125 C-3.06478707 43.9212734 -7.27143423 50.20465335 -7.5703125 62.71484375 C-7.76844185 67.4369266 -8.55097713 70.0095676 -11.140625 74.05078125 C-11.52925933 76.83296735 -11.52925933 76.83296735 -11.515625 79.73828125 C-11.97365583 86.75565922 -13.69673834 92.79447011 -18.93359375 97.74609375 C-23.38491801 100.85580132 -28.65725504 102.74296207 -34.140625 102.05078125 C-35.91015625 100.78125 -35.91015625 100.78125 -37.140625 99.05078125 C-36.96851267 93.97346766 -35.86022104 89.822943 -33.96875 85.140625 C-32.77039745 82.11648059 -31.7914912 79.02711027 -30.7890625 75.93359375 C-30.140625 74.05078125 -30.140625 74.05078125 -29.140625 72.05078125 C-28.480625 72.05078125 -27.820625 72.05078125 -27.140625 72.05078125 C-26.90410259 67.24777905 -26.90410259 67.24777905 -28.140625 62.67578125 C-29.28183058 59.68011659 -29.34252835 57.42977026 -29.265625 54.23828125 C-29.24757813 53.26246094 -29.22953125 52.28664062 -29.2109375 51.28125 C-29.18773437 50.54519531 -29.16453125 49.80914062 -29.140625 49.05078125 C-28.34269531 48.91929688 -27.54476563 48.7878125 -26.72265625 48.65234375 C-24.07920361 48.31553065 -24.07920361 48.31553065 -22.828125 46.42578125 C-21.90223867 43.22726484 -21.95328758 40.36040907 -22.140625 37.05078125 C-22.635625 36.55578125 -22.635625 36.55578125 -23.140625 36.05078125 C-23.21268011 34.36469159 -23.22448568 32.67577466 -23.203125 30.98828125 C-23.19410156 30.06917969 -23.18507813 29.15007812 -23.17578125 28.203125 C-23.16417969 27.49285156 -23.15257812 26.78257813 -23.140625 26.05078125 C-24.275 26.71078125 -25.409375 27.37078125 -26.578125 28.05078125 C-31.11222576 30.33803707 -35.13197336 30.68465625 -40.140625 30.05078125 C-40.800625 29.72078125 -41.460625 29.39078125 -42.140625 29.05078125 C-42.76499575 24.88830955 -42.08557512 22.43947244 -39.765625 19.05078125 C-36.64064947 15.19396133 -33.17926068 12.93311341 -28.85546875 10.56640625 C-25.95103664 8.94493912 -23.26243461 7.11266451 -20.515625 5.23828125 C-15.81716486 2.21215438 -12.6669515 1.33662572 -7.140625 1.05078125 C-6.233125 0.65890625 -5.325625 0.26703125 -4.390625 -0.13671875 C-2.140625 -0.94921875 -2.140625 -0.94921875 0 0 Z " fill="#FEFEFE" transform="translate(1217.140625,65.94921875)"/>
    <path id="v" d="M0 0 C0.5775 0.639375 1.155 1.27875 1.75 1.9375 C3.98062401 3.98223868 5.07436391 4.58205199 8 5 C8.6875 6.625 8.6875 6.625 9 9 C8.0520411 11.02518491 7.04808041 13.02477154 6 15 C5.30092586 17.73572585 5.30092586 17.73572585 5 20 C4.34 20 3.68 20 3 20 C2.505 22.475 2.505 22.475 2 25 C1.34 25 0.68 25 0 25 C0 25.99 0 26.98 0 28 C-0.66 28 -1.32 28 -2 28 C-1.90203125 28.91652344 -1.8040625 29.83304688 -1.703125 30.77734375 C-1.70888699 36.50331999 -4.42791566 41.44543493 -6.75 46.5625 C-7.41515625 48.08520508 -7.41515625 48.08520508 -8.09375 49.63867188 C-10.35118931 54.72123008 -12.55053396 59.61317906 -16 64 C-16.66 64 -17.32 64 -18 64 C-18.07605469 64.67417969 -18.15210938 65.34835938 -18.23046875 66.04296875 C-19.23579319 69.90606824 -21.20454659 72.97246249 -23.3125 76.3125 C-26.97061955 82.20451328 -26.97061955 82.20451328 -30.125 88.375 C-32.34171887 93.03421467 -35.47178235 97.24583738 -39 101 C-39.66 101 -40.32 101 -41 101 C-41 101.99 -41 102.98 -41 104 C-41.94875 104.433125 -42.8975 104.86625 -43.875 105.3125 C-47.20041937 106.79302201 -47.20041937 106.79302201 -49 110 C-49.99 110 -50.98 110 -52 110 C-52.226875 110.5775 -52.45375 111.155 -52.6875 111.75 C-54.80330772 115.37709895 -57.90552014 117.37067408 -61.5 119.4375 C-65.48837421 121.93023388 -68.49701685 124.49105054 -70 129 C-71.66666667 130 -73.33333333 131 -75 132 C-75.33 132.99 -75.66 133.98 -76 135 C-77.671875 136.60546875 -77.671875 136.60546875 -79.75 138.1875 C-80.42546875 138.71730469 -81.1009375 139.24710938 -81.796875 139.79296875 C-84.5331908 141.29212049 -85.92885309 141.60360592 -89 141 C-92.63173188 137.57706107 -93.566779 134.68802594 -94.125 129.8125 C-94.75204766 124.83001316 -95.58474069 120.00898394 -96.73046875 115.12109375 C-97 113 -97 113 -96.30078125 111.09765625 C-95.71447317 108.74956461 -95.71447317 108.74956461 -97.91796875 106.3828125 C-100.75383384 101.7751968 -100.48574831 98.16484836 -100.3125 92.875 C-100.30283203 91.98167969 -100.29316406 91.08835937 -100.28320312 90.16796875 C-100.21627451 86.27446953 -100.06427632 82.76326392 -99 79 C-100.485 78.505 -100.485 78.505 -102 78 C-101.67 76.35 -101.34 74.7 -101 73 C-102.485 72.505 -102.485 72.505 -104 72 C-103.98839844 71.40832031 -103.97679687 70.81664063 -103.96484375 70.20703125 C-103.91677614 65.99768215 -103.93993117 62.1077667 -105 58 C-106.0725 58.309375 -107.145 58.61875 -108.25 58.9375 C-110.82866222 59.66812096 -113.39512102 60.37482904 -116 61 C-116 61.66 -116 62.32 -116 63 C-119 65 -119 65 -121.0625 64.8125 C-123 64 -123 64 -125 61 C-124.80806957 57.92911318 -124.55645557 55.7790378 -122.75 53.25 C-121 52 -121 52 -118.6875 51.125 C-115.79842135 50.08559273 -115.79842135 50.08559273 -113.25 47.5625 C-109.62084707 44.38231444 -105.57847082 43.28460692 -101 42 C-96.41230025 40.67662507 -93.64723545 39.07135617 -90 36 C-86.92031132 34.07519458 -84.62878951 33.45568157 -81 34 C-78.625 35.4375 -78.625 35.4375 -77 38 C-76.89791036 41.83176441 -77.27590343 45.55180687 -79 49 C-79.79678409 65.01861235 -79.37891529 82.2672394 -72.33984375 96.87890625 C-70.4779718 101.21603653 -70 105.30725389 -70 110 C-69.18015625 109.24074219 -68.3603125 108.48148437 -67.515625 107.69921875 C-66.42717284 106.69521546 -65.33862618 105.6913146 -64.25 104.6875 C-63.71117187 104.18798828 -63.17234375 103.68847656 -62.6171875 103.17382812 C-60.36872121 101.10359392 -58.18919102 99.13522822 -55.69921875 97.35546875 C-53.66400367 95.95203125 -53.66400367 95.95203125 -52.5625 92.625 C-50.88677022 88.73730691 -49.03490693 86.88316158 -46 84 C-44.99795977 82.33455917 -43.99819605 80.66774771 -43 79 C-41.71226996 77.35530167 -40.39873783 75.7305372 -39.0625 74.125 C-35.88768834 70.21441994 -33.41097622 66.40626689 -31 62 C-29.75536832 60.18784758 -28.46700099 58.41508877 -27.1640625 56.64453125 C-25.84106529 54.83032823 -25.84106529 54.83032823 -24.3125 52.0625 C-23.879375 51.381875 -23.44625 50.70125 -23 50 C-22.34 50 -21.68 50 -21 50 C-20.9071875 48.9790625 -20.9071875 48.9790625 -20.8125 47.9375 C-20.03215217 45.11624247 -19.36389506 43.99019814 -17.625 41.75 C-15.04730367 38.36723519 -13.95120262 35.1168652 -12.7578125 31.0703125 C-11.72829972 28.25772603 -9.8647657 26.31488155 -8 24 C-7.66407492 21.2895393 -7.66407492 21.2895393 -8 19 C-8.7425 19.309375 -9.485 19.61875 -10.25 19.9375 C-13 21 -13 21 -15.25 21.4375 C-15.8275 21.623125 -16.405 21.80875 -17 22 C-17.495 23.485 -17.495 23.485 -18 25 C-22.35665479 26.67563646 -25.49537986 27.36503641 -30 26 C-29.71125 25.443125 -29.4225 24.88625 -29.125 24.3125 C-27.948203 22.02153538 -27.948203 22.02153538 -27.1875 19.5625 C-25.66228601 16.27124875 -23.65283667 14.47598089 -21 12 C-19.78767661 10.79566995 -18.5795075 9.58714709 -17.375 8.375 C-16.25 7.25 -15.125 6.125 -14 5 C-13.54109375 4.44828125 -13.0821875 3.8965625 -12.609375 3.328125 C-10.39801887 1.50321946 -8.70684283 1.53186593 -5.875 1.375 C-2.63088186 1.43466212 -2.63088186 1.43466212 0 0 Z " fill="#FEFEFE" transform="translate(1380,35)"/>
    <path id="e" d="M0 0 C0.495 0.99 0.495 0.99 1 2 C3.74716664 2.35872093 6.4709277 2.44405709 9.23828125 2.55859375 C12.34610653 3.0553183 13.74009599 3.84423903 16 6 C16.91239394 8.73718181 17.15759654 10.38712457 16.4375 13.1875 C16.293125 13.785625 16.14875 14.38375 16 15 C16.99 15.99 16.99 15.99 18 17 C18.1953125 19.6015625 18.1953125 19.6015625 18.125 22.625 C18.10695313 23.62789062 18.08890625 24.63078125 18.0703125 25.6640625 C18.04710937 26.43492188 18.02390625 27.20578125 18 28 C17.34 28 16.68 28 16 28 C15.67 29.32 15.34 30.64 15 32 C16.485 32.495 16.485 32.495 18 33 C17.80078125 35.3125 17.80078125 35.3125 17 38 C14.85546875 39.625 14.85546875 39.625 12.1875 41 C8.16749411 43.2276101 5.61072589 45.13612569 3 49 C0.38751917 52.23450008 -2.99063204 54.0301148 -7 55 C-10.06302934 54.95617287 -12.99244543 54.56604769 -16 54 C-16 54.99 -16 55.98 -16 57 C-16.60328125 57.02578125 -17.2065625 57.0515625 -17.828125 57.078125 C-18.62734375 57.13484375 -19.4265625 57.1915625 -20.25 57.25 C-21.03890625 57.29640625 -21.8278125 57.3428125 -22.640625 57.390625 C-25.85075508 58.21973144 -27.10000576 59.28958168 -29 62 C-28.97184662 65.10383439 -28.97184662 65.10383439 -28.125 68.375 C-26.7890625 74.3796875 -26.7890625 74.3796875 -28.0546875 78.1015625 C-29.30324834 80.99007974 -29.30324834 80.99007974 -28.125 83.875 C-27.568125 84.926875 -27.568125 84.926875 -27 86 C-24.87465341 85.85930804 -22.74972471 85.71229079 -20.625 85.5625 C-18.84996094 85.44068359 -18.84996094 85.44068359 -17.0390625 85.31640625 C-14.08481099 85.18915064 -14.08481099 85.18915064 -12 84 C-10.48192714 83.84503604 -8.96017614 83.725082 -7.4375 83.625 C3.98097864 82.53052494 16.31345831 77.67835353 24 69 C27 68 27 68 29.04296875 68.77734375 C29.75066406 69.16019531 30.45835938 69.54304688 31.1875 69.9375 C31.90292969 70.31777344 32.61835937 70.69804687 33.35546875 71.08984375 C33.89816406 71.39019531 34.44085937 71.69054687 35 72 C33.83399692 80.30124583 33.83399692 80.30124583 30.6875 82.9375 C29.800625 83.288125 28.91375 83.63875 28 84 C26.7625 84.495 26.7625 84.495 25.5 85 C24.2625 85.495 24.2625 85.495 23 86 C22.154375 86.515625 21.30875 87.03125 20.4375 87.5625 C18.19953503 88.88232549 16.47646658 89.38088335 14 90 C13.67 90.66 13.34 91.32 13 92 C10.84765625 92.7109375 10.84765625 92.7109375 8.0625 93.375 C2.48196328 94.80274771 -2.68968648 96.79518785 -8 99 C-12.58556805 100.79826198 -16.09714342 101 -21 101 C-21.99 101.99 -21.99 101.99 -23 103 C-26.42668285 103.93621218 -29.85543069 104.73292157 -33.32226562 105.5 C-35.22891548 105.9433264 -37.11670777 106.4660877 -39 107 C-39.495 107.99 -39.495 107.99 -40 109 C-42.75 109.875 -42.75 109.875 -46 110 C-48.62109375 108.59765625 -48.62109375 108.59765625 -51 106 C-51.91613155 102.88682811 -52.11418344 99.79188444 -52.3125 96.5625 C-52.38388184 95.6746582 -52.45526367 94.78681641 -52.52880859 93.87207031 C-53.04936439 86.91199982 -53.22919627 79.97775296 -53 73 C-52.01 73 -51.02 73 -50 73 C-50.391875 71.906875 -50.78375 70.81375 -51.1875 69.6875 C-53.25255887 61.32401158 -48.89275084 53.22431163 -45.18359375 45.8984375 C-44 44 -44 44 -42 43 C-40.50620884 38.58954315 -40.50620884 38.58954315 -40 34 C-39.8422773 32.12422647 -39.67435357 30.24930083 -39.5 28.375 C-39.4071875 27.37210938 -39.314375 26.36921875 -39.21875 25.3359375 C-39.1465625 24.56507812 -39.074375 23.79421875 -39 23 C-38.41089844 22.92394531 -37.82179688 22.84789063 -37.21484375 22.76953125 C-34.24746276 21.73853645 -33.36437267 20.23009631 -31.5625 17.6875 C-27.95308682 12.83638698 -25.01108689 9.40258694 -19 8 C-18.566875 7.566875 -18.13375 7.13375 -17.6875 6.6875 C-12.74740795 1.74740795 -6.86010434 -0.15244676 0 0 Z M-15.375 20.625 C-15.91125 21.40875 -16.4475 22.1925 -17 23 C-17.86625 23.9075 -18.7325 24.815 -19.625 25.75 C-21.67182108 28.18996049 -22.45825285 30.20656952 -23.125 33.3125 C-23.41375 34.529375 -23.7025 35.74625 -24 37 C-24.99 37.33 -25.98 37.66 -27 38 C-26.45291273 40.53744315 -26.45291273 40.53744315 -25 43 C-20.41125846 44.83549661 -16.09364362 43.77823175 -11.546875 42.26953125 C-6.85751463 39.93204334 -3.66219361 36.475677 -1 32 C0.06775191 27.56289763 -1.0988623 23.3920997 -2 19 C-9.03773307 18.29248739 -9.03773307 18.29248739 -15.375 20.625 Z " fill="#FEFEFE" transform="translate(1439,66)"/>
    <path id="l" d="M0 0 C1.65 0 3.3 0 5 0 C6.72675042 3.45350084 6.35653902 7.21672485 6 11 C4.87954482 13.61439542 3.68919793 15.36099576 1.60546875 17.29296875 C-4.45197747 23.25840312 -5.27889956 30.98585027 -7 39 C-7.33 39.99 -7.66 40.98 -8 42 C-8.37224418 43.72536537 -8.7250006 45.45500309 -9.0625 47.1875 C-9.23910156 48.08855469 -9.41570312 48.98960938 -9.59765625 49.91796875 C-9.79681641 50.94857422 -9.79681641 50.94857422 -10 52 C-10.66 52 -11.32 52 -12 52 C-12.04753418 52.5583252 -12.09506836 53.11665039 -12.14404297 53.69189453 C-12.64864663 58.92895177 -13.61540015 63.83100526 -15.125 68.875 C-17.8207609 78.18467258 -20.22664762 87.56088673 -22.58837891 96.96044922 C-22.87245605 98.07436035 -23.1565332 99.18827148 -23.44921875 100.3359375 C-23.70018311 101.33157715 -23.95114746 102.3272168 -24.2097168 103.35302734 C-25 106 -25 106 -26.08032227 108.08300781 C-27.15150604 110.31580181 -27.25807422 111.86953056 -27.265625 114.3359375 C-27.26820312 115.15320313 -27.27078125 115.97046875 -27.2734375 116.8125 C-27.26570313 117.658125 -27.25796875 118.50375 -27.25 119.375 C-27.25773437 120.21289062 -27.26546875 121.05078125 -27.2734375 121.9140625 C-27.25831462 126.72313729 -26.66621271 130.43909572 -25 135 C-25.33 135.66 -25.66 136.32 -26 137 C-25.505 137.99 -25.505 137.99 -25 139 C-19.67922604 137.56195298 -15.22480347 134.98059177 -10.48828125 132.2421875 C-8 131 -8 131 -5 131 C-5 130.34 -5 129.68 -5 129 C-3.25318707 128.01515892 -1.5024149 127.03733813 0.25 126.0625 C1.22453125 125.51722656 2.1990625 124.97195312 3.203125 124.41015625 C5.53610409 123.23389165 7.45350762 122.47898309 10 122 C11.679192 125.7118981 12.26388887 127.29166672 10.8125 131.1875 C8.42725785 134.88873782 7.20223718 136.59925427 3 138 C2.67 138.66 2.34 139.32 2 140 C0.06752899 140.80482774 -1.89648561 141.40115687 -3.89453125 142.0234375 C-6.14716712 142.91600052 -6.14716712 142.91600052 -7.921875 144.9765625 C-10.34077346 147.33180574 -12.23443039 148.00487158 -15.4375 149 C-19.70142192 150.44395762 -22.63962995 151.93613319 -26 155 C-28.5 156.5 -28.5 156.5 -31 158 C-32.2065625 158.99 -32.2065625 158.99 -33.4375 160 C-36.1520243 162.11865311 -38.88497129 163.55114944 -42 165 C-47.39762325 160.60193661 -50.3993895 154.35340865 -51.609375 147.59765625 C-52.51186116 138.04634443 -52.51186116 138.04634443 -50 134 C-49.34 134 -48.68 134 -48 134 C-47.83012319 132.12528812 -47.66425224 130.25021305 -47.5 128.375 C-47.36078125 126.80878906 -47.36078125 126.80878906 -47.21875 125.2109375 C-46.94795593 122.00202202 -46.94795593 122.00202202 -47.09375 118.7890625 C-47 116 -47 116 -45 113 C-44.47514329 110.92556633 -44.12076255 108.85038671 -43.7578125 106.7421875 C-43.07190985 104.26020986 -42.20893971 102.20381463 -41.125 99.87890625 C-38.78241489 94.75005657 -37.31965222 89.5009659 -35.875 84.0625 C-35.37853496 82.19757361 -34.87621208 80.33419377 -34.3671875 78.47265625 C-34.15175293 77.66062744 -33.93631836 76.84859863 -33.71435547 76.01196289 C-33 74 -33 74 -31 72 C-30.25104099 68.55478854 -30 65.53967319 -30 62 C-29.44753288 59.29685728 -28.71149502 56.66810631 -28 54 C-28.66 54 -29.32 54 -30 54 C-30.103125 53.0925 -30.20625 52.185 -30.3125 51.25 C-31.01230104 47.94184965 -31.90234102 46.5536718 -34 44 C-34 43.34 -34 42.68 -34 42 C-37.465 42.495 -37.465 42.495 -41 43 C-42.61949011 40.42786866 -43.04408751 39.32330841 -42.625 36.25 C-42.41875 35.5075 -42.2125 34.765 -42 34 C-41.34 34 -40.68 34 -40 34 C-40 33.34 -40 32.68 -40 32 C-39.1028125 31.6596875 -39.1028125 31.6596875 -38.1875 31.3125 C-35.7788621 30.1099042 -35.7788621 30.1099042 -34.5 27.375 C-33.7575 26.199375 -33.7575 26.199375 -33 25 C-31.68 25 -30.36 25 -29 25 C-28.67 24.01 -28.34 23.02 -28 22 C-26.37897032 20.28891311 -24.70496537 18.62746694 -23 17 C-22.21625 16.175 -21.4325 15.35 -20.625 14.5 C-15.73752547 9.84526236 -6.98983119 2 0 2 C0 1.34 0 0.68 0 0 Z " fill="#FEFEFE" transform="translate(1536,7)"/>
    <path id="d" d="M0 0 C1 1 1 1 1.1875 4.125 C0.87608365 10.56093788 -1.17770841 15.52357667 -4.11328125 21.1328125 C-5.18002451 23.37908244 -5.69215689 25.53725513 -6 28 C-6.66 28 -7.32 28 -8 28 C-8.10957031 28.88042969 -8.21914062 29.76085937 -8.33203125 30.66796875 C-8.56986328 32.41013672 -8.56986328 32.41013672 -8.8125 34.1875 C-9.03873047 35.91033203 -9.03873047 35.91033203 -9.26953125 37.66796875 C-10 41 -10 41 -11.54296875 43.53515625 C-13.3460592 46.58542455 -13.39793099 48.72861924 -13.5 52.25 C-13.8183738 58.00671802 -14.92748597 62.66010416 -17 68 C-19.01173225 73.82343545 -19.2204385 78.91344796 -19 85 C-20.98 85.99 -20.98 85.99 -23 87 C-22.67 88.65 -22.34 90.3 -22 92 C-22.99 92.495 -22.99 92.495 -24 93 C-24.65213292 95.02463255 -24.65213292 95.02463255 -25 97 C-22.36 97 -19.72 97 -17 97 C-18.33457333 99.90541083 -19.8745403 102.132092 -21.9375 104.5625 C-25.01886788 108.57352632 -26.24020648 112.3962873 -27.359375 117.2890625 C-28 120 -28 120 -29.015625 122.9296875 C-30.04342412 126.1354419 -30.55548551 129.1661413 -31 132.5 C-31.58569457 136.89270929 -32.49224919 140.82855608 -34 145 C-33.34 145.33 -32.68 145.66 -32 146 C-32.20625 146.886875 -32.4125 147.77375 -32.625 148.6875 C-33.26470646 151.903051 -33.26470646 151.903051 -32.01953125 154.30078125 C-30.78281788 157.57499173 -30.90651887 160.01242194 -31.0625 163.5 C-31.22819898 179.40710242 -25.61252651 194.17741187 -14.4375 205.625 C-13.633125 206.40875 -12.82875 207.1925 -12 208 C-11.505 208.5775 -11.01 209.155 -10.5 209.75 C-8.31293919 211.57255067 -6.84250119 211.9323214 -4 212 C-1.4390706 210.20142332 -1.4390706 210.20142332 1 208 C3.8125 206.75 3.8125 206.75 6 206 C6.66 207.32 7.32 208.64 8 210 C7.34 210.99 6.68 211.98 6 213 C6.04125 214.258125 6.0825 215.51625 6.125 216.8125 C6.23124793 221.25039436 4.97276446 223.62551061 2 227 C-0.81940481 228.66272591 -2.31071539 229.06724728 -5.5625 228.75 C-7.88515866 228.0353358 -9.84669163 227.11138497 -12 226 C-12.66 225.9175 -13.32 225.835 -14 225.75 C-17.30320708 224.51129734 -18.28666849 221.98451295 -20 219 C-20.4125 217.906875 -20.825 216.81375 -21.25 215.6875 C-22.55157203 212.45479122 -24.38645455 210.29990192 -26.75 207.75 C-33.46610732 200.49067812 -42.43418195 189.46904153 -42.0625 179 C-42.02511719 178.35289062 -41.98773437 177.70578125 -41.94921875 177.0390625 C-42.06869731 172.24153866 -44.37085813 167.63944269 -46.0703125 163.2109375 C-47.49753067 158.28163778 -47.45611243 153.36913313 -47.65625 148.265625 C-47.66236498 144.91816953 -47.66236498 144.91816953 -50 143 C-50.4140625 140.8359375 -50.4140625 140.8359375 -50.625 138.375 C-50.69976563 137.55773437 -50.77453125 136.74046875 -50.8515625 135.8984375 C-50.90054687 135.27195313 -50.94953125 134.64546875 -51 134 C-51.763125 134.66 -52.52625 135.32 -53.3125 136 C-56 138 -56 138 -59 138 C-59.04125 138.5775 -59.0825 139.155 -59.125 139.75 C-60.45453129 143.16879475 -62.89666629 144.22666645 -66 146 C-66.66 146 -67.32 146 -68 146 C-68 146.99 -68 147.98 -68 149 C-68.66 149.33 -69.32 149.66 -70 150 C-71.34867888 152.73296644 -72.50159137 155.52729234 -73.68359375 158.3359375 C-74.91997822 160.83805681 -75.97440379 162.15265626 -78 164 C-78.66 164.99 -79.32 165.98 -80 167 C-80.99 167.33 -81.98 167.66 -83 168 C-83.45375 168.495 -83.9075 168.99 -84.375 169.5 C-86.46918881 171.43309736 -88.22150692 171.62452796 -91 172 C-91.33 170.68 -91.66 169.36 -92 168 C-92.66 168 -93.32 168 -94 168 C-96.10952603 166.13388082 -96.94911323 164.69333219 -97.15625 161.87109375 C-97.13580274 160.3196581 -97.0874115 158.76827724 -97.0078125 157.21875 C-96.89611243 155.05952372 -96.89611243 155.05952372 -97.4934082 153.29589844 C-98.18046469 150.18212531 -98.11116313 147.23449808 -98.09765625 144.046875 C-98.0962413 143.38665344 -98.09482635 142.72643188 -98.09336853 142.04620361 C-98.08779245 139.94742206 -98.07524447 137.84874905 -98.0625 135.75 C-98.0574819 134.32291821 -98.05291954 132.89583475 -98.04882812 131.46875 C-98.03783088 127.97913168 -98.0205828 124.48957644 -98 121 C-97.34 121 -96.68 121 -96 121 C-95.93941406 119.92878906 -95.87882812 118.85757813 -95.81640625 117.75390625 C-95.73201463 116.35675609 -95.64736594 114.95962143 -95.5625 113.5625 C-95.52318359 112.85544922 -95.48386719 112.14839844 -95.44335938 111.41992188 C-95.11328125 106.11328125 -95.11328125 106.11328125 -94 105 C-93.63239269 102.67182036 -93.29758419 100.3381615 -93 98 C-91.68 98 -90.36 98 -89 98 C-88.67 96.35 -88.34 94.7 -88 93 C-87.01 93 -86.02 93 -85 93 C-84.34 90.69 -83.68 88.38 -83 86 C-82.34 86 -81.68 86 -81 86 C-80.835 85.05125 -80.67 84.1025 -80.5 83.125 C-78.30618999 75.41532481 -71.48447866 68.4670853 -65 64 C-62.125 63.1875 -62.125 63.1875 -60 63 C-59.67 61.68 -59.34 60.36 -59 59 C-50.55666508 58.34716483 -43.99961333 58.91537523 -37 64 C-34.76056212 66.37287588 -33 68.60755949 -33 72 C-32.34 72 -31.68 72 -31 72 C-30.51787786 70.43840941 -30.03944127 68.87568072 -29.5625 67.3125 C-29.29566406 66.44238281 -29.02882813 65.57226562 -28.75390625 64.67578125 C-27.95548688 62.01558764 -27.95548688 62.01558764 -27.52734375 59.29296875 C-27 57 -27 57 -25 55 C-25.33 54.67 -25.66 54.34 -26 54 C-26.0991657 52.37742456 -26.13079777 50.75060169 -26.1328125 49.125 C-26.13410156 48.14015625 -26.13539062 47.1553125 -26.13671875 46.140625 C-26.13285156 45.10421875 -26.12898438 44.0678125 -26.125 43 C-26.12886719 41.96359375 -26.13273437 40.9271875 -26.13671875 39.859375 C-26.13542969 38.87453125 -26.13414063 37.8896875 -26.1328125 36.875 C-26.13168457 35.96492188 -26.13055664 35.05484375 -26.12939453 34.1171875 C-26 32 -26 32 -25 31 C-24.95919217 29.00041636 -24.95745644 26.99954746 -25 25 C-26.65 25 -28.3 25 -30 25 C-30.495 26.485 -30.495 26.485 -31 28 C-33.3125 28.6875 -33.3125 28.6875 -36 29 C-38.94168401 27.03887733 -40.04713289 24.33503488 -41 21 C-40.9375 18.4375 -40.9375 18.4375 -40 16 C-37.75 14 -37.75 14 -35 12 C-34.195625 11.195625 -33.39125 10.39125 -32.5625 9.5625 C-27.12517573 4.12517573 -23.46178569 1.49235714 -16 0 C-15.34 -0.33 -14.68 -0.66 -14 -1 C-8.93262484 -1.98559949 -4.66698509 -2.62517912 0 0 Z M-56 79 C-56.391875 79.433125 -56.78375 79.86625 -57.1875 80.3125 C-59 82 -59 82 -61.5 83.3125 C-64.63509435 85.42868869 -65.4181235 87.62053656 -67 91 C-67.99 91.66 -68.98 92.32 -70 93 C-70.65680675 95.38083072 -70.65680675 95.38083072 -70.9375 98.125 C-71.5092009 101.82424112 -72.16472892 104.73579092 -74 108 C-76.25058642 112.04101576 -76.91989696 116.03931723 -77.60546875 120.58203125 C-78 123 -78 123 -79 126 C-78.67240066 128.33414529 -78.33926947 130.66752239 -78 133 C-78.33 133.66 -78.66 134.32 -79 135 C-77.36945684 138.20360955 -77.36945684 138.20360955 -74.6875 138.48828125 C-70.91174622 137.80227947 -69.56624186 135.99031728 -67 133.1875 C-63.82294656 129.74734682 -61.03269005 127.34040048 -57 125 C-44.6913156 116.09053066 -44.6913156 116.09053066 -38 103 C-38.13840663 99.78342987 -39.00896917 97.04498074 -40 94 C-40.39689931 92.15039735 -40.77211963 90.29600329 -41.125 88.4375 C-41.37636719 87.16712891 -41.37636719 87.16712891 -41.6328125 85.87109375 C-41.75398438 85.25363281 -41.87515625 84.63617188 -42 84 C-42.33 84.66 -42.66 85.32 -43 86 C-44.32 86 -45.64 86 -47 86 C-47.33 85.01 -47.66 84.02 -48 83 C-49.98 83 -51.96 83 -54 83 C-54.66 81.68 -55.32 80.36 -56 79 Z " fill="#FEFEFE" transform="translate(1662,6)"/>
</svg>